<mxfile host="app.diagrams.net" agent="Mozilla/5.0 (Macintosh; Intel Mac OS X 10_15_7) AppleWebKit/605.1.15 (KHTML, like Gecko) Version/17.3 Safari/605.1.15" version="24.7.14">
  <diagram name="Page-1" id="6JW0Btaq5eBx_hQ6fHJs">
    <mxGraphModel dx="1326" dy="1019" grid="1" gridSize="10" guides="1" tooltips="1" connect="1" arrows="1" fold="1" page="1" pageScale="1" pageWidth="850" pageHeight="1100" math="0" shadow="0">
      <root>
        <mxCell id="0" />
        <mxCell id="1" parent="0" />
        <mxCell id="LHbs0fI5RwnJSMe3hcEo-16" value="Exist in portfolio?" style="rhombus;whiteSpace=wrap;html=1;" vertex="1" parent="1">
          <mxGeometry x="390" y="445" width="115" height="110" as="geometry" />
        </mxCell>
        <mxCell id="LHbs0fI5RwnJSMe3hcEo-18" value="" style="endArrow=classic;html=1;rounded=0;entryX=0;entryY=0.5;entryDx=0;entryDy=0;exitX=1;exitY=0.5;exitDx=0;exitDy=0;" edge="1" parent="1" source="LHbs0fI5RwnJSMe3hcEo-19" target="LHbs0fI5RwnJSMe3hcEo-16">
          <mxGeometry width="50" height="50" relative="1" as="geometry">
            <mxPoint x="250" y="330" as="sourcePoint" />
            <mxPoint x="240" y="310" as="targetPoint" />
          </mxGeometry>
        </mxCell>
        <mxCell id="LHbs0fI5RwnJSMe3hcEo-19" value="Get Record by CoopID" style="shape=parallelogram;perimeter=parallelogramPerimeter;whiteSpace=wrap;html=1;fixedSize=1;" vertex="1" parent="1">
          <mxGeometry x="160" y="470" width="120" height="60" as="geometry" />
        </mxCell>
        <mxCell id="LHbs0fI5RwnJSMe3hcEo-20" value="" style="endArrow=classic;html=1;rounded=0;exitX=0.5;exitY=0;exitDx=0;exitDy=0;" edge="1" parent="1" source="LHbs0fI5RwnJSMe3hcEo-16">
          <mxGeometry width="50" height="50" relative="1" as="geometry">
            <mxPoint x="450" y="440" as="sourcePoint" />
            <mxPoint x="448" y="360" as="targetPoint" />
          </mxGeometry>
        </mxCell>
        <mxCell id="LHbs0fI5RwnJSMe3hcEo-21" value="Yes" style="edgeLabel;html=1;align=center;verticalAlign=middle;resizable=0;points=[];" vertex="1" connectable="0" parent="LHbs0fI5RwnJSMe3hcEo-20">
          <mxGeometry x="-0.2002" y="2" relative="1" as="geometry">
            <mxPoint as="offset" />
          </mxGeometry>
        </mxCell>
        <mxCell id="LHbs0fI5RwnJSMe3hcEo-22" value="" style="endArrow=classic;html=1;rounded=0;exitX=0.5;exitY=1;exitDx=0;exitDy=0;" edge="1" parent="1" source="LHbs0fI5RwnJSMe3hcEo-16">
          <mxGeometry width="50" height="50" relative="1" as="geometry">
            <mxPoint x="450" y="650" as="sourcePoint" />
            <mxPoint x="448" y="630" as="targetPoint" />
          </mxGeometry>
        </mxCell>
        <mxCell id="LHbs0fI5RwnJSMe3hcEo-23" value="No" style="edgeLabel;html=1;align=center;verticalAlign=middle;resizable=0;points=[];" vertex="1" connectable="0" parent="LHbs0fI5RwnJSMe3hcEo-22">
          <mxGeometry x="0.0399" y="-1" relative="1" as="geometry">
            <mxPoint as="offset" />
          </mxGeometry>
        </mxCell>
        <mxCell id="LHbs0fI5RwnJSMe3hcEo-24" value="Get Customer by Gedi" style="shape=parallelogram;perimeter=parallelogramPerimeter;whiteSpace=wrap;html=1;fixedSize=1;" vertex="1" parent="1">
          <mxGeometry x="390" y="300" width="120" height="60" as="geometry" />
        </mxCell>
        <mxCell id="LHbs0fI5RwnJSMe3hcEo-25" value="Search Customer" style="shape=parallelogram;perimeter=parallelogramPerimeter;whiteSpace=wrap;html=1;fixedSize=1;" vertex="1" parent="1">
          <mxGeometry x="385" y="630" width="120" height="60" as="geometry" />
        </mxCell>
        <mxCell id="LHbs0fI5RwnJSMe3hcEo-26" value="" style="endArrow=classic;html=1;rounded=0;entryX=0;entryY=0.5;entryDx=0;entryDy=0;" edge="1" parent="1" target="LHbs0fI5RwnJSMe3hcEo-27">
          <mxGeometry width="50" height="50" relative="1" as="geometry">
            <mxPoint x="440" y="600" as="sourcePoint" />
            <mxPoint x="330" y="790" as="targetPoint" />
            <Array as="points">
              <mxPoint x="330" y="600" />
              <mxPoint x="330" y="780" />
            </Array>
          </mxGeometry>
        </mxCell>
        <mxCell id="LHbs0fI5RwnJSMe3hcEo-27" value="Add to Portfolio" style="shape=parallelogram;perimeter=parallelogramPerimeter;whiteSpace=wrap;html=1;fixedSize=1;" vertex="1" parent="1">
          <mxGeometry x="365" y="750" width="135" height="60" as="geometry" />
        </mxCell>
        <mxCell id="LHbs0fI5RwnJSMe3hcEo-28" value="Subscribe" style="shape=parallelogram;perimeter=parallelogramPerimeter;whiteSpace=wrap;html=1;fixedSize=1;" vertex="1" parent="1">
          <mxGeometry x="385" y="1000" width="140" height="60" as="geometry" />
        </mxCell>
        <mxCell id="LHbs0fI5RwnJSMe3hcEo-29" value="" style="endArrow=classic;html=1;rounded=0;entryX=0;entryY=0.5;entryDx=0;entryDy=0;exitX=1;exitY=0.5;exitDx=0;exitDy=0;" edge="1" parent="1" source="LHbs0fI5RwnJSMe3hcEo-38" target="LHbs0fI5RwnJSMe3hcEo-28">
          <mxGeometry width="50" height="50" relative="1" as="geometry">
            <mxPoint x="275" y="1000" as="sourcePoint" />
            <mxPoint x="355" y="980" as="targetPoint" />
            <Array as="points">
              <mxPoint x="345" y="1030" />
            </Array>
          </mxGeometry>
        </mxCell>
        <mxCell id="LHbs0fI5RwnJSMe3hcEo-56" value="Single Hit" style="edgeLabel;html=1;align=center;verticalAlign=middle;resizable=0;points=[];" vertex="1" connectable="0" parent="LHbs0fI5RwnJSMe3hcEo-29">
          <mxGeometry y="1" relative="1" as="geometry">
            <mxPoint as="offset" />
          </mxGeometry>
        </mxCell>
        <mxCell id="LHbs0fI5RwnJSMe3hcEo-31" value="FREG" style="shape=cylinder3;whiteSpace=wrap;html=1;boundedLbl=1;backgroundOutline=1;size=15;" vertex="1" parent="1">
          <mxGeometry x="790" y="740" width="60" height="80" as="geometry" />
        </mxCell>
        <mxCell id="LHbs0fI5RwnJSMe3hcEo-32" value="" style="endArrow=none;dashed=1;html=1;dashPattern=1 3;strokeWidth=2;rounded=0;exitX=0;exitY=0.5;exitDx=0;exitDy=0;exitPerimeter=0;entryX=0.473;entryY=1.05;entryDx=0;entryDy=0;entryPerimeter=0;" edge="1" parent="1" source="LHbs0fI5RwnJSMe3hcEo-31" target="LHbs0fI5RwnJSMe3hcEo-61">
          <mxGeometry width="50" height="50" relative="1" as="geometry">
            <mxPoint x="610" y="780" as="sourcePoint" />
            <mxPoint x="670" y="780" as="targetPoint" />
          </mxGeometry>
        </mxCell>
        <mxCell id="LHbs0fI5RwnJSMe3hcEo-34" value="Pay per request" style="text;html=1;align=center;verticalAlign=middle;whiteSpace=wrap;rounded=0;" vertex="1" parent="1">
          <mxGeometry x="425" y="690" width="100" height="30" as="geometry" />
        </mxCell>
        <mxCell id="LHbs0fI5RwnJSMe3hcEo-35" value="Free request" style="text;html=1;align=center;verticalAlign=middle;whiteSpace=wrap;rounded=0;" vertex="1" parent="1">
          <mxGeometry x="460" y="360" width="100" height="30" as="geometry" />
        </mxCell>
        <mxCell id="LHbs0fI5RwnJSMe3hcEo-36" value="" style="shape=flexArrow;endArrow=classic;html=1;rounded=0;exitX=0;exitY=0.5;exitDx=0;exitDy=0;entryX=0.902;entryY=1;entryDx=0;entryDy=0;entryPerimeter=0;" edge="1" parent="1" source="LHbs0fI5RwnJSMe3hcEo-24" target="LHbs0fI5RwnJSMe3hcEo-49">
          <mxGeometry width="50" height="50" relative="1" as="geometry">
            <mxPoint x="250" y="320" as="sourcePoint" />
            <mxPoint x="70" y="330" as="targetPoint" />
          </mxGeometry>
        </mxCell>
        <mxCell id="LHbs0fI5RwnJSMe3hcEo-37" value="Customer Data" style="edgeLabel;html=1;align=center;verticalAlign=middle;resizable=0;points=[];" vertex="1" connectable="0" parent="LHbs0fI5RwnJSMe3hcEo-36">
          <mxGeometry x="0.1636" y="-2" relative="1" as="geometry">
            <mxPoint as="offset" />
          </mxGeometry>
        </mxCell>
        <mxCell id="LHbs0fI5RwnJSMe3hcEo-38" value="Match?" style="rhombus;whiteSpace=wrap;html=1;" vertex="1" parent="1">
          <mxGeometry x="145" y="990" width="80" height="80" as="geometry" />
        </mxCell>
        <mxCell id="LHbs0fI5RwnJSMe3hcEo-40" value="10-15 min" style="text;html=1;align=center;verticalAlign=middle;whiteSpace=wrap;rounded=0;" vertex="1" parent="1">
          <mxGeometry x="710" y="790" width="60" height="30" as="geometry" />
        </mxCell>
        <mxCell id="LHbs0fI5RwnJSMe3hcEo-41" value="" style="endArrow=none;dashed=1;html=1;dashPattern=1 3;strokeWidth=2;rounded=0;entryX=0.5;entryY=1;entryDx=0;entryDy=0;exitX=0.5;exitY=0;exitDx=0;exitDy=0;" edge="1" parent="1" source="LHbs0fI5RwnJSMe3hcEo-51" target="LHbs0fI5RwnJSMe3hcEo-27">
          <mxGeometry width="50" height="50" relative="1" as="geometry">
            <mxPoint x="433" y="900" as="sourcePoint" />
            <mxPoint x="410" y="840" as="targetPoint" />
            <Array as="points">
              <mxPoint x="188" y="860" />
              <mxPoint x="430" y="860" />
            </Array>
          </mxGeometry>
        </mxCell>
        <mxCell id="LHbs0fI5RwnJSMe3hcEo-65" value="Job" style="edgeLabel;html=1;align=center;verticalAlign=middle;resizable=0;points=[];" vertex="1" connectable="0" parent="LHbs0fI5RwnJSMe3hcEo-41">
          <mxGeometry x="0.202" relative="1" as="geometry">
            <mxPoint as="offset" />
          </mxGeometry>
        </mxCell>
        <mxCell id="LHbs0fI5RwnJSMe3hcEo-42" value="" style="shape=flexArrow;endArrow=classic;html=1;rounded=0;exitX=0;exitY=0.5;exitDx=0;exitDy=0;entryX=0.269;entryY=1.033;entryDx=0;entryDy=0;entryPerimeter=0;" edge="1" parent="1" source="LHbs0fI5RwnJSMe3hcEo-25" target="LHbs0fI5RwnJSMe3hcEo-49">
          <mxGeometry width="50" height="50" relative="1" as="geometry">
            <mxPoint x="392.5" y="659.5" as="sourcePoint" />
            <mxPoint x="70" y="660" as="targetPoint" />
          </mxGeometry>
        </mxCell>
        <mxCell id="LHbs0fI5RwnJSMe3hcEo-43" value="Customer Data" style="edgeLabel;html=1;align=center;verticalAlign=middle;resizable=0;points=[];" vertex="1" connectable="0" parent="LHbs0fI5RwnJSMe3hcEo-42">
          <mxGeometry x="0.1636" y="-2" relative="1" as="geometry">
            <mxPoint as="offset" />
          </mxGeometry>
        </mxCell>
        <mxCell id="LHbs0fI5RwnJSMe3hcEo-49" value="Customer Intelligence Search" style="rounded=1;whiteSpace=wrap;html=1;rotation=-90;" vertex="1" parent="1">
          <mxGeometry x="-230" y="510" width="520" height="60" as="geometry" />
        </mxCell>
        <mxCell id="LHbs0fI5RwnJSMe3hcEo-51" value="Get Record by CoopID" style="shape=parallelogram;perimeter=parallelogramPerimeter;whiteSpace=wrap;html=1;fixedSize=1;" vertex="1" parent="1">
          <mxGeometry x="127.5" y="890" width="120" height="60" as="geometry" />
        </mxCell>
        <mxCell id="LHbs0fI5RwnJSMe3hcEo-53" value="" style="endArrow=classic;html=1;rounded=0;entryX=0;entryY=0.5;entryDx=0;entryDy=0;exitX=0.577;exitY=1;exitDx=0;exitDy=0;exitPerimeter=0;" edge="1" parent="1" source="LHbs0fI5RwnJSMe3hcEo-49" target="LHbs0fI5RwnJSMe3hcEo-19">
          <mxGeometry width="50" height="50" relative="1" as="geometry">
            <mxPoint x="90" y="530" as="sourcePoint" />
            <mxPoint x="140" y="480" as="targetPoint" />
          </mxGeometry>
        </mxCell>
        <mxCell id="LHbs0fI5RwnJSMe3hcEo-55" value="" style="endArrow=classic;html=1;rounded=0;exitX=0.5;exitY=1;exitDx=0;exitDy=0;" edge="1" parent="1" source="LHbs0fI5RwnJSMe3hcEo-51" target="LHbs0fI5RwnJSMe3hcEo-38">
          <mxGeometry width="50" height="50" relative="1" as="geometry">
            <mxPoint x="65" y="1020" as="sourcePoint" />
            <mxPoint x="115" y="970" as="targetPoint" />
          </mxGeometry>
        </mxCell>
        <mxCell id="LHbs0fI5RwnJSMe3hcEo-57" value="Delete from Portfolio" style="shape=parallelogram;perimeter=parallelogramPerimeter;whiteSpace=wrap;html=1;fixedSize=1;" vertex="1" parent="1">
          <mxGeometry x="365" y="1110" width="140" height="60" as="geometry" />
        </mxCell>
        <mxCell id="LHbs0fI5RwnJSMe3hcEo-59" value="" style="endArrow=classic;html=1;rounded=0;entryX=0;entryY=0.5;entryDx=0;entryDy=0;exitX=0.5;exitY=1;exitDx=0;exitDy=0;" edge="1" parent="1" source="LHbs0fI5RwnJSMe3hcEo-38" target="LHbs0fI5RwnJSMe3hcEo-57">
          <mxGeometry width="50" height="50" relative="1" as="geometry">
            <mxPoint x="195" y="1140" as="sourcePoint" />
            <mxPoint x="325" y="1130" as="targetPoint" />
            <Array as="points">
              <mxPoint x="185" y="1140" />
            </Array>
          </mxGeometry>
        </mxCell>
        <mxCell id="LHbs0fI5RwnJSMe3hcEo-60" value="No Hit" style="edgeLabel;html=1;align=center;verticalAlign=middle;resizable=0;points=[];" vertex="1" connectable="0" parent="LHbs0fI5RwnJSMe3hcEo-59">
          <mxGeometry x="0.3231" y="-2" relative="1" as="geometry">
            <mxPoint as="offset" />
          </mxGeometry>
        </mxCell>
        <mxCell id="LHbs0fI5RwnJSMe3hcEo-61" value="BCI" style="rounded=1;whiteSpace=wrap;html=1;rotation=-90;" vertex="1" parent="1">
          <mxGeometry x="215" y="725" width="930" height="60" as="geometry" />
        </mxCell>
        <mxCell id="LHbs0fI5RwnJSMe3hcEo-62" value="" style="endArrow=classic;html=1;rounded=0;exitX=1;exitY=0.5;exitDx=0;exitDy=0;entryX=0.473;entryY=0.017;entryDx=0;entryDy=0;entryPerimeter=0;" edge="1" parent="1" source="LHbs0fI5RwnJSMe3hcEo-27" target="LHbs0fI5RwnJSMe3hcEo-61">
          <mxGeometry width="50" height="50" relative="1" as="geometry">
            <mxPoint x="530" y="820" as="sourcePoint" />
            <mxPoint x="580" y="770" as="targetPoint" />
          </mxGeometry>
        </mxCell>
        <mxCell id="LHbs0fI5RwnJSMe3hcEo-63" value="" style="endArrow=classic;html=1;rounded=0;exitX=1;exitY=0.5;exitDx=0;exitDy=0;" edge="1" parent="1" source="LHbs0fI5RwnJSMe3hcEo-25">
          <mxGeometry width="50" height="50" relative="1" as="geometry">
            <mxPoint x="570" y="680" as="sourcePoint" />
            <mxPoint x="648" y="660" as="targetPoint" />
          </mxGeometry>
        </mxCell>
        <mxCell id="LHbs0fI5RwnJSMe3hcEo-64" value="" style="endArrow=classic;html=1;rounded=0;exitX=1;exitY=0.5;exitDx=0;exitDy=0;entryX=0.958;entryY=-0.05;entryDx=0;entryDy=0;entryPerimeter=0;" edge="1" parent="1" source="LHbs0fI5RwnJSMe3hcEo-24" target="LHbs0fI5RwnJSMe3hcEo-61">
          <mxGeometry width="50" height="50" relative="1" as="geometry">
            <mxPoint x="550" y="360" as="sourcePoint" />
            <mxPoint x="600" y="310" as="targetPoint" />
          </mxGeometry>
        </mxCell>
        <mxCell id="LHbs0fI5RwnJSMe3hcEo-67" value="" style="endArrow=classic;html=1;rounded=0;exitX=1;exitY=0.5;exitDx=0;exitDy=0;entryX=0.208;entryY=-0.017;entryDx=0;entryDy=0;entryPerimeter=0;" edge="1" parent="1" source="LHbs0fI5RwnJSMe3hcEo-28" target="LHbs0fI5RwnJSMe3hcEo-61">
          <mxGeometry width="50" height="50" relative="1" as="geometry">
            <mxPoint x="550" y="1040" as="sourcePoint" />
            <mxPoint x="600" y="990" as="targetPoint" />
          </mxGeometry>
        </mxCell>
        <mxCell id="LHbs0fI5RwnJSMe3hcEo-68" value="" style="endArrow=classic;html=1;rounded=0;exitX=1;exitY=0.5;exitDx=0;exitDy=0;entryX=0.088;entryY=-0.033;entryDx=0;entryDy=0;entryPerimeter=0;" edge="1" parent="1" source="LHbs0fI5RwnJSMe3hcEo-57" target="LHbs0fI5RwnJSMe3hcEo-61">
          <mxGeometry width="50" height="50" relative="1" as="geometry">
            <mxPoint x="530" y="1160" as="sourcePoint" />
            <mxPoint x="580" y="1110" as="targetPoint" />
          </mxGeometry>
        </mxCell>
      </root>
    </mxGraphModel>
  </diagram>
</mxfile>
